<svg width="139" height="28" viewBox="0 0 139 28" fill="none" xmlns="http://www.w3.org/2000/svg">
<path d="M8.67848 27.9721C6.99398 28.0446 5.31782 27.6926 3.79683 26.947C2.72719 26.4208 1.81426 25.611 1.15261 24.6015C0.702142 23.9327 0.433063 23.1533 0.372903 22.3429C0.369163 22.2345 0.388447 22.1266 0.429421 22.0266C0.470395 21.9266 0.532079 21.8369 0.610204 21.7638C0.766977 21.6163 0.973767 21.5373 1.18651 21.5437H4.20364C4.39038 21.5387 4.57402 21.5933 4.72909 21.7001C4.90517 21.8491 5.02994 22.0521 5.08505 22.2792C5.3342 22.8775 5.71977 23.4058 6.20941 23.8197C6.88161 24.302 7.69669 24.5293 8.51463 24.4625C9.58529 24.555 10.6501 24.2257 11.4922 23.5417C11.8519 23.0981 12.1212 22.5852 12.2842 22.0331C12.4472 21.4811 12.5007 20.9011 12.4414 20.3276V17.9647C11.798 18.7139 10.9965 19.303 10.0978 19.6873C9.19908 20.0716 8.22678 20.2411 7.25467 20.1828C6.26612 20.2558 5.27436 20.0966 4.35495 19.7172C3.43554 19.3378 2.61275 18.7483 1.94927 17.9937C0.676044 16.2774 0.00158184 14.1729 0.0339032 12.017L0 11.0788L0.0339032 10.1407C0.0197886 7.98578 0.701131 5.88657 1.97187 4.16983C2.62276 3.39959 3.43917 2.79471 4.35685 2.40279C5.27453 2.01086 6.26842 1.84259 7.26031 1.91122C8.3498 1.88683 9.42966 2.12486 10.413 2.60618C11.2905 3.04832 12.0562 3.6925 12.6505 4.48835V3.13318C12.6467 3.01635 12.6674 2.90005 12.7113 2.79215C12.7552 2.68424 12.8211 2.58725 12.9047 2.50773C13.0639 2.35042 13.2768 2.26313 13.498 2.26449H16.2778C16.385 2.26249 16.4914 2.28305 16.5905 2.32488C16.6897 2.36672 16.7794 2.42895 16.8541 2.50773C16.9331 2.58991 16.995 2.68778 17.0358 2.79534C17.0766 2.90289 17.0955 3.01786 17.0914 3.13318L17.1253 19.8816C17.1914 20.9721 17.0389 22.0649 16.6775 23.0928C16.316 24.1206 15.7531 25.0618 15.0235 25.8583C14.1535 26.6211 13.1452 27.2004 12.0565 27.5632C10.9677 27.9259 9.81975 28.0648 8.67848 27.9721ZM8.53723 16.5053C9.07516 16.5454 9.61466 16.4533 10.1109 16.2368C10.6072 16.0202 11.0458 15.6854 11.3905 15.2602C12.0405 14.3766 12.4076 13.3084 12.4414 12.2024C12.464 12.017 12.4753 11.6464 12.4753 11.0904C12.4753 10.5345 12.464 10.1638 12.4414 9.9785C12.4076 8.87244 12.0405 7.80424 11.3905 6.9207C11.047 6.49524 10.6095 6.15984 10.1143 5.9423C9.61904 5.72476 9.08036 5.63133 8.54288 5.66978C6.10206 5.66978 4.81384 7.19868 4.67824 10.2565L4.64434 11.0904C4.64434 14.7003 5.94385 16.5053 8.54288 16.5053H8.53723ZM23.0861 20.3276C22.9789 20.3296 22.8725 20.309 22.7734 20.2672C22.6742 20.2253 22.5845 20.1631 22.5098 20.0843C22.4329 20.0077 22.3722 19.9158 22.3314 19.8142C22.2906 19.7126 22.2706 19.6035 22.2725 19.4936V3.13318C22.2684 3.01786 22.2873 2.90289 22.3281 2.79534C22.3689 2.68778 22.4308 2.58991 22.5098 2.50773C22.5845 2.42895 22.6742 2.36672 22.7734 2.32488C22.8725 2.28305 22.9789 2.26249 23.0861 2.26449H25.8659C25.9784 2.26028 26.0906 2.27969 26.1955 2.32152C26.3005 2.36335 26.396 2.42671 26.4761 2.50773C26.5552 2.58991 26.617 2.68778 26.6578 2.79534C26.6986 2.90289 26.7175 3.01786 26.7134 3.13318V4.55785C27.2839 3.79757 28.0266 3.19135 28.8773 2.79173C29.7279 2.39211 30.6608 2.21113 31.5951 2.26449H33.0189C33.1276 2.25894 33.2362 2.2761 33.3382 2.31493C33.4402 2.35376 33.5334 2.41344 33.6122 2.49035C33.6872 2.5711 33.7454 2.66665 33.7833 2.77118C33.8212 2.87572 33.8379 2.98706 33.8325 3.09844V5.63503C33.8373 5.8539 33.7582 6.06596 33.6122 6.22574C33.536 6.30746 33.4437 6.37146 33.3413 6.41343C33.239 6.45539 33.129 6.47433 33.0189 6.46898H30.3351C29.8768 6.44312 29.4181 6.51295 28.9869 6.67422C28.5557 6.83549 28.1609 7.08485 27.8265 7.40717C27.512 7.74992 27.2688 8.15457 27.1114 8.59657C26.9541 9.03856 26.886 9.50871 26.9112 9.9785V19.4936C26.9131 19.6035 26.8931 19.7126 26.8523 19.8142C26.8115 19.9158 26.7507 20.0077 26.6739 20.0843C26.5998 20.1624 26.511 20.2242 26.4129 20.266C26.3148 20.3078 26.2095 20.3288 26.1032 20.3276H23.0861ZM44.7484 20.675C42.506 20.8248 40.2944 20.0774 38.5785 18.5902C37.8345 17.8361 37.2444 16.9377 36.8428 15.9473C36.4411 14.957 36.236 13.8945 36.2394 12.822L36.2055 11.2931L36.2394 9.75843C36.2401 8.68599 36.4505 7.62457 36.858 6.63684C37.2656 5.64912 37.8622 4.75513 38.6124 4.00767C40.316 2.52074 42.5149 1.76737 44.7484 1.90543C46.971 1.77177 49.1578 2.52516 50.8505 4.00767C51.6007 4.75513 52.1973 5.64912 52.6049 6.63684C53.0125 7.62457 53.2228 8.68599 53.2235 9.75843C53.2461 10.0364 53.2574 10.5461 53.2574 11.2873C53.2574 12.0286 53.2461 12.5383 53.2235 12.8162C53.2276 13.8897 53.0229 14.9533 52.6212 15.9447C52.2196 16.9361 51.6291 17.8354 50.8844 18.5902C49.1798 20.0737 46.98 20.8211 44.7484 20.675ZM44.7484 17.1655C45.2633 17.1981 45.7787 17.112 46.2568 16.9136C46.7349 16.7151 47.1636 16.4094 47.5113 16.0188C48.2214 15.0515 48.5863 13.8639 48.5452 12.6541C48.5678 12.4224 48.5791 11.9707 48.5791 11.2989C48.5791 10.6271 48.5678 10.1754 48.5452 9.94376C48.5859 8.72412 48.2147 7.52748 47.4943 6.55584C47.1502 6.16472 46.7248 5.85764 46.2496 5.65719C45.7744 5.45675 45.2615 5.36804 44.7484 5.39758C44.2301 5.36578 43.7114 5.4533 43.2304 5.65372C42.7494 5.85415 42.3182 6.16239 41.9686 6.55584C41.2482 7.52748 40.877 8.72412 40.9177 9.94376L40.8838 11.2989L40.9177 12.6541C40.8749 13.8687 41.2465 15.0606 41.9686 16.0246C42.3209 16.4135 42.753 16.7174 43.2336 16.9147C43.7143 17.112 44.2316 17.1976 44.7484 17.1655ZM88.8301 20.675C87.7344 20.6878 86.6504 20.4441 85.6604 19.9627C84.7528 19.5329 83.97 18.8683 83.3891 18.0342C82.8449 17.2539 82.5543 16.3178 82.5585 15.3586C82.5432 14.6142 82.705 13.8772 83.0298 13.2112C83.3547 12.5453 83.8329 11.9704 84.4231 11.5364C85.9449 10.4514 87.7058 9.77084 89.5477 9.55574L94.192 8.86078V8.13687C94.2213 7.72841 94.1704 7.31808 94.0423 6.93014C93.9142 6.5422 93.7115 6.18452 93.4462 5.87826C93.119 5.59731 92.7411 5.38519 92.3339 5.25402C91.9267 5.12286 91.4983 5.07521 91.0732 5.11381C90.4485 5.08422 89.8277 5.22829 89.2765 5.53078C88.877 5.76784 88.507 6.0537 88.1747 6.38211L87.6097 6.96124C87.5852 7.08035 87.521 7.18704 87.4283 7.26309C87.3356 7.33914 87.2199 7.37983 87.1012 7.37821H84.4626C84.3639 7.3783 84.2662 7.35839 84.1751 7.31963C84.0839 7.28087 84.0011 7.22402 83.9315 7.15235C83.8581 7.08121 83.8005 6.99478 83.7625 6.89887C83.7245 6.80296 83.707 6.69981 83.7112 6.59638C83.7919 5.87202 84.081 5.18865 84.5417 4.63313C85.2016 3.80446 86.0466 3.15091 87.0051 2.72779C88.2941 2.14602 89.6937 1.86702 91.1014 1.91122C93.2052 1.72022 95.2982 2.3813 96.9323 3.75285C97.5469 4.38453 98.0273 5.13974 98.3433 5.97096C98.6593 6.80218 98.8041 7.69144 98.7685 8.5828V19.4936C98.7733 19.7125 98.6942 19.9245 98.5482 20.0843C98.4721 20.166 98.3797 20.23 98.2773 20.272C98.175 20.314 98.065 20.3329 97.9549 20.3276H95.1356C95.0284 20.3296 94.9219 20.309 94.8228 20.2672C94.7237 20.2253 94.634 20.1631 94.5592 20.0843C94.4824 20.0077 94.4217 19.9158 94.3809 19.8142C94.34 19.7126 94.32 19.6035 94.3219 19.4936V18.1384C93.7817 18.9176 93.0589 19.5449 92.2201 19.9627C91.161 20.4718 89.9992 20.7159 88.8301 20.675ZM89.9827 17.345C90.5482 17.3654 91.1115 17.2647 91.6369 17.0493C92.1622 16.8339 92.638 16.5086 93.0337 16.0941C93.4542 15.6005 93.7755 15.0267 93.9791 14.4056C94.1827 13.7845 94.2646 13.1282 94.2202 12.4746V11.7854L90.8302 12.3414C88.2312 12.7583 86.9317 13.6502 86.9317 15.0169C86.9203 15.3593 86.9974 15.6987 87.1552 16.0008C87.3129 16.3028 87.5457 16.5568 87.83 16.737C88.473 17.1532 89.2226 17.363 89.9827 17.3392V17.345ZM109.577 20.3276C109.3 20.3464 109.024 20.2667 108.797 20.1017C108.601 19.9283 108.449 19.7074 108.357 19.4589L101.978 3.33588C101.951 3.23396 101.94 3.12855 101.944 3.02315C101.943 2.92271 101.962 2.82311 102 2.73048C102.038 2.63784 102.094 2.55415 102.164 2.48456C102.227 2.41462 102.303 2.35851 102.387 2.31968C102.472 2.28084 102.563 2.26009 102.656 2.2587H105.469C105.672 2.24662 105.873 2.3053 106.039 2.42518C106.206 2.54506 106.327 2.71908 106.385 2.91891L110.86 15.0459L115.334 2.91891C115.386 2.74449 115.484 2.58814 115.617 2.46718C115.781 2.32249 115.994 2.24788 116.21 2.2587H119.024C119.12 2.25658 119.215 2.27566 119.302 2.31464C119.39 2.35362 119.469 2.41159 119.532 2.48456C119.666 2.63009 119.739 2.82332 119.736 3.02315C119.74 3.12855 119.728 3.23396 119.702 3.33588L113.374 19.4589C113.286 19.7184 113.12 19.9425 112.899 20.0987C112.679 20.2549 112.416 20.335 112.148 20.3276H109.577ZM130.494 20.675C129.396 20.7335 128.299 20.5663 127.265 20.1834C126.232 19.8005 125.284 19.2095 124.476 18.4454C122.909 16.74 122.062 14.4692 122.12 12.1271L122.086 11.2584C121.95 8.77011 122.744 6.32204 124.307 4.41306C125.095 3.56456 126.053 2.90144 127.115 2.46949C128.177 2.03755 129.319 1.84708 130.46 1.91122C131.611 1.83915 132.764 2.0257 133.837 2.45784C134.911 2.88999 135.879 3.55728 136.675 4.41306C138.199 6.27426 138.98 8.65759 138.861 11.0846V11.8086C138.863 11.9184 138.843 12.0275 138.802 12.1291C138.762 12.2307 138.701 12.3227 138.624 12.3993C138.544 12.4803 138.448 12.5436 138.343 12.5855C138.238 12.6273 138.126 12.6467 138.014 12.6425H126.765V12.9205C126.764 14.0779 127.126 15.2048 127.798 16.1347C128.111 16.549 128.515 16.8805 128.978 17.1012C129.441 17.3219 129.949 17.4254 130.46 17.403C131.072 17.4162 131.679 17.2785 132.228 17.0013C132.778 16.7242 133.255 16.3157 133.618 15.8103C133.747 15.6259 133.908 15.467 134.093 15.3412C134.277 15.2711 134.473 15.2415 134.669 15.2544H137.652C137.841 15.2496 138.027 15.3109 138.178 15.4281C138.25 15.485 138.308 15.5589 138.346 15.6436C138.384 15.7283 138.402 15.8213 138.398 15.9146C138.31 16.6646 137.968 17.3592 137.432 17.8778C136.655 18.7261 135.712 19.3953 134.663 19.8411C133.348 20.4214 131.926 20.7057 130.494 20.675ZM134.183 9.69473V9.62523C134.245 8.44502 133.894 7.28092 133.194 6.34157C132.863 5.93443 132.444 5.61127 131.971 5.3973C131.497 5.18333 130.982 5.08433 130.465 5.10802C129.951 5.08324 129.438 5.18183 128.967 5.39598C128.496 5.61012 128.081 5.9339 127.753 6.34157C127.058 7.28325 126.708 8.44565 126.765 9.62523V9.69473H134.183Z" fill="#013A52"/>
<path d="M60.5912 20.9711C60.3348 20.9845 60.082 20.9047 59.8773 20.7458C59.6727 20.5869 59.5293 20.359 59.4724 20.1024L55.9143 11.2157C55.8878 11.1138 55.8764 11.0083 55.8804 10.9029C55.8772 10.7031 55.9502 10.5099 56.0838 10.3644C56.1477 10.2914 56.2262 10.2334 56.314 10.1944C56.4018 10.1555 56.4967 10.1364 56.5923 10.1385H59.1688C59.3842 10.1348 59.5941 10.2086 59.762 10.347C59.9129 10.4593 60.0255 10.6173 60.0841 10.7987L62.0828 14.9974L65.5533 6.27714C65.6218 6.06768 65.7449 5.88142 65.9093 5.73855C66.0949 5.58222 66.3303 5.50177 66.5703 5.51269H68.2992C68.5392 5.50177 68.7747 5.58222 68.9603 5.73855C69.1225 5.87688 69.2357 6.06618 69.2823 6.27714L72.8292 14.9945L77.53 0.661026C77.5858 0.482815 77.692 0.325601 77.8351 0.209304C78.0067 0.0654794 78.2239 -0.00871651 78.4453 0.000816692H80.9878C81.0858 -0.000308533 81.183 0.0191515 81.2734 0.0579965C81.3637 0.0968415 81.4454 0.154248 81.5133 0.226678C81.584 0.296271 81.64 0.379964 81.6779 0.472594C81.7158 0.565224 81.7347 0.664829 81.7336 0.765268L81.6658 1.078L75.4056 20.1024C75.3346 20.3488 75.1999 20.571 75.0157 20.7453C74.8189 20.9053 74.5716 20.9856 74.3208 20.9711H72.0834C71.8255 20.9915 71.5694 20.9143 71.3632 20.7543C71.1571 20.5942 71.0153 20.3623 70.9646 20.1024L67.4517 11.7991L63.9473 20.1024C63.8859 20.3633 63.7366 20.5935 63.5257 20.7524C63.3148 20.9114 63.0559 20.9888 62.7947 20.9711H60.5912Z" fill="#11ABEC"/>
</svg>
