<svg width="20" height="21" viewBox="0 0 20 21" fill="none" xmlns="http://www.w3.org/2000/svg">
<g clip-path="url(#clip0)">
<path d="M19.4436 5.90478C19.2224 5.08285 18.5744 4.43496 17.7526 4.21363C16.2511 3.80273 10.2454 3.80273 10.2454 3.80273C10.2454 3.80273 4.23975 3.80273 2.73831 4.19797C1.93233 4.41915 1.26849 5.08299 1.04731 5.90478C0.652222 7.40608 0.652222 10.5196 0.652222 10.5196C0.652222 10.5196 0.652222 13.6488 1.04731 15.1345C1.26864 15.9563 1.91652 16.6043 2.73846 16.8256C4.25556 17.2365 10.2455 17.2365 10.2455 17.2365C10.2455 17.2365 16.2511 17.2365 17.7526 16.8413C18.5745 16.6201 19.2224 15.9721 19.4437 15.1503C19.8388 13.6488 19.8388 10.5354 19.8388 10.5354C19.8388 10.5354 19.8546 7.40608 19.4436 5.90478Z" fill="#FF0000"/>
<path d="M8.33325 13.3962L13.3274 10.5197L8.33325 7.64331V13.3962Z" fill="white"/>
</g>
<defs>
<clipPath id="clip0">
<rect width="19.1867" height="19.1867" fill="white" transform="translate(0.652222 0.917236)"/>
</clipPath>
</defs>
</svg>
